<svg width="50" height="50" viewBox="0 0 50 50" fill="none" xmlns="http://www.w3.org/2000/svg">
<path fill-rule="evenodd" clip-rule="evenodd" d="M9.36955 8.89809C10.9167 10.1551 11.4971 10.0592 14.4024 9.86535L41.792 8.22073C42.3729 8.22073 41.8896 7.64122 41.6958 7.5449L37.1472 4.25646C36.2757 3.57979 35.1142 2.80483 32.8888 2.99869L6.36753 4.93306C5.40031 5.02896 5.20712 5.51257 5.59229 5.90021L9.36955 8.89809ZM11.014 15.2812V44.0997C11.014 45.6486 11.7879 46.2278 13.5299 46.1323L43.6309 44.3903C45.374 44.2944 45.5681 43.2292 45.5681 41.9712V13.346C45.5681 12.0899 45.0847 11.4125 44.0177 11.5092L12.562 13.346C11.4011 13.4435 11.014 14.0242 11.014 15.2812ZM40.7295 16.8271C40.9226 17.6983 40.7295 18.5688 39.8566 18.6667L38.4066 18.9557V40.2313C37.1472 40.908 35.9861 41.2951 35.0184 41.2951C33.4692 41.2951 33.0812 40.8111 31.9208 39.3615L22.434 24.4683V38.8778L25.436 39.5552C25.436 39.5552 25.436 41.2951 23.014 41.2951L16.3371 41.6823C16.1431 41.2951 16.3371 40.3288 17.0144 40.1354L18.7567 39.6524V20.6002L16.3376 20.4064C16.1435 19.5351 16.6267 18.2789 17.9828 18.1815L25.1455 17.6986L35.0184 32.7856V19.4392L32.5012 19.1503C32.308 18.0853 33.0812 17.3119 34.0492 17.216L40.7295 16.8271ZM4.14076 2.3221L31.7271 0.290551C35.1149 8.13603e-06 35.9865 0.194649 38.1156 1.74131L46.9215 7.93056C48.3747 8.9949 48.8587 9.28465 48.8587 10.4449V44.3903C48.8587 46.5177 48.0837 47.776 45.3743 47.9684L13.3382 49.9031C11.3042 50 10.3362 49.7101 9.27101 48.3556L2.7862 39.9417C1.62433 38.3931 1.1411 37.2344 1.1411 35.8788V5.70566C1.1411 3.96594 1.91634 2.51468 4.14076 2.3221Z" fill="black"/>
</svg>
